<svg xmlns="http://www.w3.org/2000/svg" width="12" height="12" fill="none"><path fill="#fff" d="M8.83 1.286A5.68 5.68 0 1 1 .31 6.204l.004-.184A5.68 5.68 0 0 1 8.83 1.286Zm-2.84 1.51a.568.568 0 0 0-.568.569 1.704 1.704 0 1 0 0 3.407v1.136a.58.58 0 0 1-.491-.226l-.04-.057a.568.568 0 0 0-.983.567 1.704 1.704 0 0 0 1.423.852h.091a.568.568 0 0 0 .502.564l.066.004a.568.568 0 0 0 .568-.568l.1-.003a1.704 1.704 0 0 0-.1-3.405V4.501a.582.582 0 0 1 .492.226l.039.057a.568.568 0 0 0 .983-.567 1.704 1.704 0 0 0-1.422-.852h-.092a.568.568 0 0 0-.568-.568Zm.568 3.976a.568.568 0 0 1 0 1.136V6.772ZM5.422 4.501v1.135a.568.568 0 1 1 0-1.135Z"/></svg>