<svg viewBox="0 0 500 500" fill="none" xmlns="http://www.w3.org/2000/svg">
<path d="M406.376 312H343.408V154.582C343.408 150.26 342.559 146.17 340.862 142.312C339.319 138.454 337.081 135.059 334.148 132.126C331.216 129.194 327.821 126.956 323.962 125.413C320.104 123.715 316.014 122.866 311.693 122.866C307.372 122.866 303.282 123.715 299.424 125.413C295.72 126.956 292.402 129.194 289.469 132.126C286.691 135.059 284.454 138.454 282.756 142.312C281.213 146.17 280.441 150.26 280.441 154.582V312H217.242V154.582C217.242 150.26 216.393 146.17 214.696 142.312C213.152 138.454 210.914 135.059 207.982 132.126C205.05 129.194 201.655 126.956 197.796 125.413C193.938 123.715 189.848 122.866 185.527 122.866C181.206 122.866 177.116 123.715 173.257 125.413C169.553 126.956 166.235 129.194 163.303 132.126C160.525 135.059 158.287 138.454 156.59 142.312C155.046 146.17 154.275 150.26 154.275 154.582V312H91.0758V64.0659H106.355L123.485 83.0487C132.282 75.6408 141.928 69.9305 152.423 65.9179C163.072 61.7509 174.106 59.6675 185.527 59.6675C197.102 59.6675 208.368 61.8281 219.326 66.1494C230.437 70.4707 240.16 77.9558 248.494 88.6047C252.353 83.3574 256.751 78.8818 261.69 75.1778C266.628 71.4739 271.798 68.4644 277.2 66.1494C282.756 63.8344 288.466 62.2139 294.331 61.288C300.195 60.2076 305.983 59.6675 311.693 59.6675C324.811 59.6675 337.081 62.1368 348.501 67.0754C360.076 72.014 370.108 78.8046 378.596 87.4472C387.239 95.9354 394.029 105.967 398.968 117.542C403.906 129.117 406.376 141.463 406.376 154.582V312Z" fill="#fff"/>
<circle cx="137.174" cy="408.369" r="43.7125" fill="#fff"/>
<circle cx="359.015" cy="408.369" r="43.7125" fill="#fff"/>
</svg>
